{"title":"My.Girl.1991.iNTERNAL.DVDRip.XviD-EXViDiNT","uid":6998285,"size":737457962,"categoryP":"video","categoryS":"movies","magnet":"?xt=urn:btih:2a31ed3e748aaf4f2b7e8b22a4d5b19aa5cf2fdb&amp;dn=My.Girl.1991.iNTERNAL.DVDRip.XviD-EXViDiNT&amp;tr=udp%3A%2F%2Ftracker.openbittorrent.com%3A80&amp;tr=udp%3A%2F%2Fopen.demonii.com%3A1337&amp;tr=udp%3A%2F%2Ftracker.coppersurfer.tk%3A6969&amp;tr=udp%3A%2F%2Fexodus.desync.com%3A6969","seeders":1,"leechers":0,"uploader":"TvTeam","files":5,"time":1327965434,"description":". \n &lt;a href=&quot;\nhttp://www.torrenting.com&quot; rel=&quot;nofollow&quot; target=&quot;_NEW&quot;&gt;\nhttp://www.torrenting.com&lt;/a&gt;          :     Once &amp; For all ;)\n\n\n               www . Torrenting . Com \n\n(((((((((((((= Enjoy No RAR releases =))))))))))))))))))))\n\n\n...................................NFO:....................................\n\n.                                                                                                     \n       \n     \n     \n       \n       \n     \n     \n                                         \n                                         \n                EXVID                    \n                                         \n         \n                                         \n         Filled the Archives             \n                                         \n         \n                                         \n                With:                    \n                                         \n         \n                                         \n                                    \n     E240                           \n                                    \n     SP               (C) 2009      \n                                         \n     \n     \n     \n                                                                                  \n                                                                                   \n                  My.Girl.1991.iNTERNAL.DVDRip.XviD-EXViDiNT                        \n                                                                                   \n                                                                                  \n     \n                                                                                               \nEXViD aims to iNTERNAL those releases which have been lost in the archives.\nEXViD aims to PRE non-internal releases which have poor sources and are likely skipped by others. &lt;a href=&quot;\nhttp://www.imdb.com/title/tt0102492/&quot; rel=&quot;nofollow&quot; target=&quot;_NEW&quot;&gt;\nhttp://www.imdb.com/title/tt0102492/&lt;/a&gt;\nSubtitles: EN, FR, DE, IT, ES, NL, AR, BG, CS, DA, FI, EL, IW, HI, HU, IS, NO, PL, PT, SV, TR\nDate: 2012.01\n\nDirector: Howard Zieff\n\nGenres: Drama | Family | Romance\n\nPlot:\nVada Sultenfuss is obsessed with death. Her mother is dead, and her father runs a funeral parlor.\nShe is also in love with her English teacher, and joins a poetry class over the summer just to\nimpress him. Thomas J., her best friend, is &quot;allergic to everything&quot;, and sticks with Vada\ndespite her hangups. When Vada's father hires Shelly, a makeup expert, in his funeral parlor, and\nbegins to fall in love with her, Vada is outraged and does everything in her power to split them\nup.\n\nCast:\nDan Aykroyd\t...\tHarry Sultenfuss\nJamie Lee Curtis\t...\tShelly DeVoto\nMacaulay Culkin\t...\tThomas J. Sennett\nAnna Chlumsky\t...\tVada Margaret Sultenfuss\nRichard Masur\t...\tPhil Sultenfuss\nGriffin Dunne\t...\tMr. Jake Bixler\nRay Buktenica\t...\tDanny DeVoto\nAnn Nelson\t...\tGramoo Sultenfuss\nPeter Michael Goetz\t...\tDr. Welty\nJane Hallaren\t...\tNurse Randall\nAnthony R. Jones\t...\tArthur\nTom Villard\t...\tJustin\nLara Steinick\t...\tRonda\nKristian Truelsen\t...\tCharles\nDavid Caprita\t...\tRay\n\nStats:\nFormat                                   : AVI\nFormat/Info                              : Audio Video Interleave\nFile size                                : 702 MiB\nDuration                                 : 1h 38mn\nOverall bit rate mode                    : Variable\nOverall bit rate                         : 1 001 Kbps\n\nVideo\nID                                       : 0\nFormat                                   : MPEG-4 Visual\nFormat profile                           : Advanced Simple@L5\nFormat settings, BVOP                    : 2\nFormat settings, QPel                    : No\nFormat settings, GMC                     : No warppoints\nFormat settings, Matrix                  : Default (H.263)\nCodec ID                                 : XVID\nCodec ID/Hint                            : XviD\nDuration                                 : 1h 38mn\nBit rate                                 : 852 Kbps\nWidth                                    : 608 pixels\nHeight                                   : 336 pixels\nDisplay aspect ratio                     : 16:9\nFrame rate                               : 25.000 fps\nColor space                              : YUV\nChroma subsampling                       : 4:2:0\nBit depth                                : 8 bits\nScan type                                : Progressive\nCompression mode                         : Lossy\nBits/(Pixel*Frame)                       : 0.167\nStream size                              : 598 MiB (85%)\nWriting library                          : XviD 64\n\nAudio\nID                                       : 1\nFormat                                   : MPEG Audio\nFormat version                           : Version 1\nFormat profile                           : Layer 3\nMode                                     : Joint stereo\nMode extension                           : MS Stereo\nCodec ID                                 : 55\nCodec ID/Hint                            : MP3\nDuration                                 : 1h 38mn\nBit rate mode                            : Variable\nBit rate                                 : 136 Kbps\nChannel(s)                               : 2 channels\nSampling rate                            : 48.0 KHz\nCompression mode                         : Lossy\nStream size                              : 95.4 MiB (14%)\nAlignment                                : Aligned on interleaves\nInterleave, duration                     : 24 ms (0.60 video frame)\nInterleave, preload duration             : 118 ms\nWriting library                          : LAME3.98.4\n\n\n\nRelease notes:\nEnjoy!\n\nLooking for:\n75TB+ Archives\nDUTCH/FLEMiSH Archives\n                                                                                                    \nGreets: CRBS EPiSODE FiCO FLS iLS KLASSiGER LiPSYNC MADE NODLABS RUNNER SPRiNTER      \n   \n\n                                                                    ASCII DONE BY XX^NFO 2oo9     \n \n\nRLS-Crc: 415243414445:42EECD90","torrent":{"xt":"urn:btih:2a31ed3e748aaf4f2b7e8b22a4d5b19aa5cf2fdb","amp;dn":"My.Girl.1991.iNTERNAL.DVDRip.XviD-EXViDiNT","amp;tr":["udp%3A%2F%2Ftracker.openbittorrent.com%3A80","udp%3A%2F%2Fopen.demonii.com%3A1337","udp%3A%2F%2Ftracker.coppersurfer.tk%3A6969","udp%3A%2F%2Fexodus.desync.com%3A6969"],"infoHash":"2a31ed3e748aaf4f2b7e8b22a4d5b19aa5cf2fdb","infoHashBuffer":{"type":"Buffer","data":[42,49,237,62,116,138,175,79,43,126,139,34,164,213,177,154,165,207,47,219]},"announce":[],"urlList":[]}}